<?xml version="1.0" standalone="no"?>
<!DOCTYPE svg PUBLIC "-//W3C//DTD SVG 20010904//EN"
 "http://www.w3.org/TR/2001/REC-SVG-20010904/DTD/svg10.dtd">
<svg version="1.0" xmlns="http://www.w3.org/2000/svg"
 width="256.000000pt" height="256.000000pt" viewBox="0 0 256.000000 256.000000"
 preserveAspectRatio="xMidYMid meet">

<g transform="translate(0.000000,256.000000) scale(0.100000,-0.100000)"
fill="#000000" stroke="none">
<path d="M1163 2343 c9 -2 23 -2 30 0 6 3 -1 5 -18 5 -16 0 -22 -2 -12 -5z"/>
<path d="M1378 2343 c6 -2 18 -2 25 0 6 3 1 5 -13 5 -14 0 -19 -2 -12 -5z"/>
<path d="M1098 2333 c7 -3 16 -2 19 1 4 3 -2 6 -13 5 -11 0 -14 -3 -6 -6z"/>
<path d="M1095 2286 c-487 -94 -833 -510 -835 -1002 -1 -282 96 -518 295 -719
153 -155 307 -240 519 -287 121 -26 350 -21 469 10 167 45 336 144 461 268
405 405 398 1064 -15 1459 -132 126 -277 207 -458 256 -98 27 -333 35 -436 15z
m277 -73 c22 -20 23 -66 2 -88 -15 -14 -15 -18 0 -40 16 -24 16 -25 -9 -25
-15 0 -31 9 -41 25 -13 20 -25 25 -55 25 -35 0 -39 -3 -39 -25 0 -18 -5 -25
-19 -25 -21 0 -31 40 -31 123 l0 47 87 0 c66 0 91 -4 105 -17z m271 -49 c15
-8 35 -30 44 -50 23 -47 9 -83 -39 -107 -31 -15 -43 -16 -79 -7 -57 16 -99 59
-99 102 0 34 25 68 60 81 21 8 79 -2 113 -19z m-715 -112 c46 -31 51 -37 39
-50 -11 -10 -20 -11 -33 -4 -24 12 -107 -35 -113 -64 -3 -18 -18 -34 -33 -34
-4 0 -9 42 -10 93 -3 88 -2 93 22 109 27 19 15 24 128 -50z m944 -79 l-5 -56
37 7 c21 4 43 9 49 11 7 3 23 -4 36 -14 l24 -18 -47 -61 c-55 -72 -62 -78 -81
-62 -13 11 -11 18 15 53 16 22 28 43 25 45 -2 2 -27 -1 -55 -8 -28 -7 -53 -11
-54 -9 -2 2 0 29 4 59 4 30 7 56 5 57 -1 2 -20 -13 -42 -32 -30 -26 -43 -31
-52 -22 -18 18 -15 23 47 84 56 57 57 58 78 40 18 -15 20 -26 16 -74z m-1197
17 c4 -6 -14 -34 -39 -64 -40 -47 -44 -55 -31 -66 13 -11 21 -7 48 25 28 33
34 36 45 22 11 -13 8 -21 -19 -51 -31 -36 -31 -37 -13 -57 17 -18 17 -21 1
-37 -16 -16 -21 -13 -77 43 l-59 60 60 68 c61 68 73 75 84 57z m793 -21 c130
-35 234 -100 334 -208 280 -302 247 -775 -71 -1035 -123 -101 -245 -146 -419
-153 -147 -7 -227 9 -347 68 -152 74 -252 174 -325 324 -52 109 -70 190 -70
316 1 211 71 373 228 521 180 170 430 232 670 167z m697 -349 c-13 -20 -26 -8
-55 50 -17 33 -34 60 -38 60 -20 0 -20 -15 -1 -52 19 -37 18 -58 -1 -58 -5 0
-19 18 -30 40 -14 27 -25 38 -35 34 -12 -5 -8 -18 21 -71 28 -52 33 -67 22
-74 -7 -5 -15 -9 -18 -9 -10 0 -92 174 -84 177 5 2 38 20 74 41 l65 38 43 -83
c23 -46 40 -88 37 -93z m-1552 94 c3 -4 -12 -42 -33 -85 l-40 -78 -74 37 c-41
20 -75 40 -75 43 -1 3 5 14 13 24 13 18 16 17 70 -13 l56 -32 27 55 c25 51 40
64 56 49z m-93 -224 c0 -10 -8 -24 -19 -29 -23 -13 -38 -105 -21 -126 6 -8 10
-23 8 -34 -3 -17 -12 -12 -78 36 -41 30 -76 56 -77 57 -1 1 1 15 5 31 7 24 18
31 87 55 101 34 95 33 95 10z m1658 4 c54 -38 71 -142 30 -188 -35 -39 -69
-42 -106 -11 -99 83 -27 272 76 199z"/>
<path d="M1230 2170 c0 -18 7 -20 55 -20 48 0 55 2 55 20 0 18 -7 20 -55 20
-48 0 -55 -2 -55 -20z"/>
<path d="M1548 2143 c-10 -2 -21 -16 -25 -30 -5 -21 0 -31 21 -50 48 -41 106
-24 106 31 0 27 -65 58 -102 49z"/>
<path d="M820 2036 c0 -40 8 -44 39 -18 l22 17 -30 18 -31 18 0 -35z"/>
<path d="M1273 1963 c9 -2 23 -2 30 0 6 3 -1 5 -18 5 -16 0 -22 -2 -12 -5z"/>
<path d="M1173 1953 c9 -2 23 -2 30 0 6 3 -1 5 -18 5 -16 0 -22 -2 -12 -5z"/>
<path d="M1368 1953 c6 -2 18 -2 25 0 6 3 1 5 -13 5 -14 0 -19 -2 -12 -5z"/>
<path d="M1095 1940 c-25 -11 1 -11 35 0 20 6 21 8 5 8 -11 0 -29 -3 -40 -8z"/>
<path d="M1428 1943 c7 -3 16 -2 19 1 4 3 -2 6 -13 5 -11 0 -14 -3 -6 -6z"/>
<path d="M1155 1929 c-27 -4 -66 -12 -85 -18 -43 -13 -43 -13 -35 -1 3 6 1 10
-4 10 -8 0 -10 -84 -9 -267 l3 -268 2 248 c3 210 6 247 18 247 8 0 15 4 15 9
0 5 12 9 26 9 15 0 29 3 33 8 6 9 10 10 66 13 19 0 35 6 35 11 0 6 -3 9 -7 9
-5 -1 -30 -5 -58 -10z"/>
<path d="M1230 1930 c0 -5 7 -7 15 -4 8 4 15 8 15 10 0 2 -7 4 -15 4 -8 0 -15
-4 -15 -10z"/>
<path d="M1278 1933 c7 -3 16 -2 19 1 4 3 -2 6 -13 5 -11 0 -14 -3 -6 -6z"/>
<path d="M1350 1926 c0 -2 15 -6 34 -8 19 -2 32 0 30 4 -5 8 -64 12 -64 4z"/>
<path d="M1510 1920 c8 -5 20 -10 25 -10 6 0 3 5 -5 10 -8 5 -19 10 -25 10 -5
0 -3 -5 5 -10z"/>
<path d="M904 1847 l-79 -53 -3 -212 -2 -212 -110 0 -110 0 0 -85 0 -85 110 0
c81 0 110 -3 111 -12 0 -7 1 -105 2 -216 l2 -204 30 -25 c45 -36 128 -83 138
-76 5 3 8 118 7 257 -1 138 -1 257 -1 264 1 9 27 12 96 12 l95 0 0 59 c0 33 4
71 10 85 l10 26 -105 0 -105 0 0 265 c0 146 -4 265 -8 265 -5 0 -44 -24 -88
-53z"/>
<path d="M1570 1896 c0 -2 7 -7 16 -10 8 -3 12 -2 9 4 -6 10 -25 14 -25 6z"/>
<path d="M1328 1858 c-15 -15 -16 -18 -3 -18 9 0 18 7 22 15 8 23 0 24 -19 3z"/>
<path d="M1402 1855 c-11 -12 -10 -15 3 -15 8 0 15 7 15 15 0 18 -2 18 -18 0z"/>
<path d="M1245 1850 c-19 -8 -19 -9 3 -9 12 -1 22 4 22 9 0 6 -1 10 -2 9 -2 0
-12 -4 -23 -9z"/>
<path d="M1640 1831 c0 -28 -33 -41 -102 -41 -65 0 -72 -2 -96 -30 -25 -28
-31 -30 -99 -30 -83 0 -89 -7 -42 -51 29 -27 36 -29 119 -29 49 0 92 -4 95
-10 4 -6 -29 -10 -90 -10 -97 0 -97 0 -131 -34 -19 -19 -34 -39 -34 -45 0 -7
58 -11 173 -13 l172 -3 3 -26 c2 -14 -3 -30 -10 -36 -7 -6 -70 -13 -139 -14
-113 -4 -129 -6 -161 -28 -61 -42 -83 -85 -83 -161 0 -56 4 -73 28 -108 45
-68 90 -85 239 -90 70 -2 125 -8 122 -13 -3 -5 -60 -9 -126 -9 -143 0 -178
-14 -210 -86 -21 -48 -17 -79 14 -132 27 -44 66 -62 132 -62 30 0 66 -4 81
-10 36 -13 49 -54 31 -91 -17 -34 -16 -35 34 -9 46 23 70 63 70 116 0 28 -8
44 -34 70 -34 34 -35 34 -125 34 -138 0 -109 17 37 22 98 3 136 8 165 22 80
39 119 154 79 232 -43 85 -90 104 -254 104 -153 0 -145 16 12 23 132 5 170 18
235 78 77 71 110 191 81 290 -22 77 -99 163 -163 183 -13 4 -23 3 -23 -3z"/>
<path d="M1410 1810 c0 -5 -39 -11 -87 -13 l-88 -3 93 -2 c76 -2 92 1 92 13 0
8 -2 15 -5 15 -3 0 -5 -4 -5 -10z"/>
<path d="M752 1715 c-45 -52 -106 -161 -97 -175 3 -6 2 -10 -4 -10 -12 0 -34
-66 -26 -80 3 -5 1 -10 -5 -10 -15 0 -9 -42 7 -47 7 -3 15 8 19 23 11 41 30
75 39 66 4 -4 4 4 1 18 -6 19 -5 21 3 10 9 -13 12 -13 28 2 9 10 13 21 9 25
-4 4 -11 1 -16 -7 -6 -8 -10 -10 -10 -4 0 15 39 49 47 41 3 -4 1 -7 -5 -7 -7
0 -12 -5 -12 -11 0 -6 7 -8 16 -5 8 3 22 -1 30 -9 19 -18 4 -20 -16 -2 -8 6
-4 0 9 -15 14 -16 25 -28 25 -28 1 0 2 61 4 135 1 74 1 135 -2 135 -2 0 -22
-20 -44 -45z m-44 -95 c-22 -30 -35 -41 -22 -17 9 16 36 47 41 47 2 0 -6 -13
-19 -30z m-67 -143 c-10 -9 -11 -8 -5 6 3 10 9 15 12 12 3 -3 0 -11 -7 -18z"/>
<path d="M1205 1730 c9 -16 18 -30 21 -30 2 0 -2 14 -11 30 -9 17 -18 30 -21
30 -2 0 2 -13 11 -30z"/>
<path d="M1240 1673 c0 -7 5 -15 10 -18 8 -5 7 -12 -2 -22 -7 -9 -26 -41 -43
-72 -24 -44 -36 -57 -60 -62 -23 -5 -26 -7 -13 -13 28 -12 53 10 97 84 40 66
41 72 27 92 -9 12 -16 17 -16 11z"/>
<path d="M1851 1634 c0 -11 3 -14 6 -6 3 7 2 16 -1 19 -3 4 -6 -2 -5 -13z"/>
<path d="M1120 1610 c-21 -7 -21 -8 -5 -9 11 0 27 4 35 9 18 11 5 11 -30 0z"/>
<path d="M1858 1543 c-14 -109 -78 -201 -173 -252 -37 -20 -38 -21 -10 -16 44
8 85 26 85 37 0 5 4 7 9 4 18 -11 56 44 60 87 1 5 6 5 13 1 7 -4 8 -3 4 4 -9
15 23 112 38 112 8 0 8 2 -1 8 -6 4 -13 21 -15 37 -3 23 -5 19 -10 -22z"/>
<path d="M730 1512 c0 -4 9 -13 20 -20 23 -14 26 -7 6 14 -16 15 -26 18 -26 6z"/>
<path d="M1225 1510 c5 -7 70 -10 186 -9 98 1 176 6 173 10 -3 5 -86 9 -185 9
-123 0 -178 -3 -174 -10z"/>
<path d="M1761 1189 c-1 -4 6 -23 14 -42 43 -103 -11 -213 -124 -253 -33 -12
-34 -13 -9 -14 56 0 100 28 142 92 24 37 23 124 -2 180 -11 24 -21 40 -21 37z"/>
<path d="M610 1165 c0 -8 5 -15 10 -15 6 0 10 -10 10 -23 0 -13 3 -27 8 -31 4
-4 7 -11 7 -14 0 -16 28 -72 36 -72 5 0 6 -7 3 -15 -6 -15 11 -22 19 -7 2 4 2
1 0 -6 -6 -24 82 -161 95 -148 4 5 -37 67 -53 78 -6 5 -5 8 3 8 8 0 5 8 -8 22
-11 12 -18 28 -16 34 3 7 -2 20 -9 31 -18 23 -19 37 -2 27 8 -6 8 -3 -2 9 -7
9 -11 23 -8 31 3 8 -1 20 -9 27 -15 12 -15 24 0 60 6 13 -1 16 -39 17 -34 2
-45 -1 -45 -13z"/>
<path d="M1038 1172 c-17 -3 -18 -24 -18 -258 0 -140 3 -254 8 -254 4 0 7 109
7 242 l0 242 85 1 c85 0 119 -12 104 -36 -4 -8 -3 -9 4 -5 7 4 12 2 12 -3 0
-6 7 -11 16 -11 9 0 14 -6 11 -12 -3 -9 8 -14 32 -15 l36 -2 -37 19 c-20 11
-49 35 -63 54 -22 29 -32 35 -60 32 -19 -1 -32 1 -29 5 2 4 -5 7 -16 6 -11 -1
-20 -5 -20 -10 0 -5 -6 -4 -14 2 -11 9 -16 9 -21 0 -4 -6 -10 -7 -14 -2 -3 5
-14 7 -23 5z"/>
<path d="M1895 1090 c-3 -5 -1 -10 4 -10 6 0 11 5 11 10 0 6 -2 10 -4 10 -3 0
-8 -4 -11 -10z"/>
<path d="M1260 804 c0 -6 13 -23 30 -39 28 -26 36 -29 117 -31 l88 -3 -73 9
c-77 10 -103 20 -139 53 -13 11 -23 16 -23 11z"/>
<path d="M1652 760 c0 -19 2 -27 5 -17 2 9 2 25 0 35 -3 9 -5 1 -5 -18z"/>
<path d="M407 1428 c-27 -10 -27 -11 -11 -29 26 -28 44 -24 44 11 0 17 -1 30
-2 29 -2 0 -16 -5 -31 -11z"/>
<path d="M2104 1435 c-33 -50 17 -131 65 -105 29 15 35 51 17 94 -19 44 -56
50 -82 11z"/>
<path d="M1950 2116 c0 -2 8 -10 18 -17 15 -13 16 -12 3 4 -13 16 -21 21 -21
13z"/>
<path d="M574 2088 l-19 -23 23 19 c12 11 22 21 22 23 0 8 -8 2 -26 -19z"/>
<path d="M464 1978 l-19 -23 23 19 c21 18 27 26 19 26 -2 0 -12 -10 -23 -22z"/>
<path d="M2095 1970 c10 -11 20 -20 23 -20 3 0 -3 9 -13 20 -10 11 -20 20 -23
20 -3 0 3 -9 13 -20z"/>
<path d="M2200 1820 c6 -11 13 -20 16 -20 2 0 0 9 -6 20 -6 11 -13 20 -16 20
-2 0 0 -9 6 -20z"/>
<path d="M2260 1705 c0 -5 5 -17 10 -25 5 -8 10 -10 10 -5 0 6 -5 17 -10 25
-5 8 -10 11 -10 5z"/>
<path d="M2282 1655 c0 -5 6 -26 13 -45 7 -19 14 -28 14 -20 0 8 -6 29 -14 45
-7 17 -13 26 -13 20z"/>
<path d="M2311 1554 c0 -11 3 -14 6 -6 3 7 2 16 -1 19 -3 4 -6 -2 -5 -13z"/>
<path d="M2321 1514 c0 -11 3 -14 6 -6 3 7 2 16 -1 19 -3 4 -6 -2 -5 -13z"/>
<path d="M2332 1470 c0 -14 2 -19 5 -12 2 6 2 18 0 25 -3 6 -5 1 -5 -13z"/>
<path d="M2342 1395 c0 -16 2 -22 5 -12 2 9 2 23 0 30 -3 6 -5 -1 -5 -18z"/>
<path d="M212 1390 c0 -14 2 -19 5 -12 2 6 2 18 0 25 -3 6 -5 1 -5 -13z"/>
<path d="M212 1170 c0 -14 2 -19 5 -12 2 6 2 18 0 25 -3 6 -5 1 -5 -13z"/>
<path d="M2342 1155 c0 -16 2 -22 5 -12 2 9 2 23 0 30 -3 6 -5 -1 -5 -18z"/>
<path d="M221 1094 c0 -11 3 -14 6 -6 3 7 2 16 -1 19 -3 4 -6 -2 -5 -13z"/>
<path d="M2331 1084 c0 -11 3 -14 6 -6 3 7 2 16 -1 19 -3 4 -6 -2 -5 -13z"/>
<path d="M280 885 c0 -5 5 -17 10 -25 5 -8 10 -10 10 -5 0 6 -5 17 -10 25 -5
8 -10 11 -10 5z"/>
<path d="M2256 843 c-6 -14 -5 -15 5 -6 7 7 10 15 7 18 -3 3 -9 -2 -12 -12z"/>
<path d="M2139 643 c-13 -16 -12 -17 4 -4 16 13 21 21 13 21 -2 0 -10 -8 -17
-17z"/>
<path d="M2104 598 l-19 -23 23 19 c21 18 27 26 19 26 -2 0 -12 -10 -23 -22z"/>
<path d="M455 590 c10 -11 20 -20 23 -20 3 0 -3 9 -13 20 -10 11 -20 20 -23
20 -3 0 3 -9 13 -20z"/>
<path d="M2035 518 l-40 -43 43 40 c39 36 47 45 39 45 -2 0 -21 -19 -42 -42z"/>
<path d="M595 450 c10 -11 20 -20 23 -20 3 0 -3 9 -13 20 -10 11 -20 20 -23
20 -3 0 3 -9 13 -20z"/>
<path d="M1954 448 l-19 -23 23 19 c21 18 27 26 19 26 -2 0 -12 -10 -23 -22z"/>
<path d="M1877 396 c-59 -41 -73 -55 -29 -30 33 19 91 63 82 63 -3 0 -27 -15
-53 -33z"/>
<path d="M1730 313 c-30 -14 -77 -33 -105 -43 -27 -10 -43 -19 -35 -19 18 -1
180 65 194 79 14 14 8 12 -54 -17z"/>
<path d="M1518 233 c7 -3 16 -2 19 1 4 3 -2 6 -13 5 -11 0 -14 -3 -6 -6z"/>
<path d="M1468 223 c7 -3 16 -2 19 1 4 3 -2 6 -13 5 -11 0 -14 -3 -6 -6z"/>
<path d="M1148 213 c7 -3 16 -2 19 1 4 3 -2 6 -13 5 -11 0 -14 -3 -6 -6z"/>
<path d="M1393 213 c9 -2 23 -2 30 0 6 3 -1 5 -18 5 -16 0 -22 -2 -12 -5z"/>
</g>
</svg>
