<?xml version="1.0" standalone="no"?>
<!DOCTYPE svg PUBLIC "-//W3C//DTD SVG 20010904//EN"
 "http://www.w3.org/TR/2001/REC-SVG-20010904/DTD/svg10.dtd">
<svg version="1.0" xmlns="http://www.w3.org/2000/svg"
 width="256.000000pt" height="256.000000pt" viewBox="0 0 256.000000 256.000000"
 preserveAspectRatio="xMidYMid meet">

<g transform="translate(0.000000,256.000000) scale(0.100000,-0.100000)"
fill="#000000" stroke="none">
<path d="M207 1423 c-21 -20 10 -113 37 -113 7 0 19 -14 26 -30 7 -17 21 -35
32 -41 10 -5 29 -27 42 -47 22 -34 35 -41 187 -96 204 -74 212 -78 238 -119
11 -18 33 -39 48 -47 58 -26 318 -110 345 -110 20 0 37 13 70 51 l43 51 46
-51 c31 -35 53 -51 70 -51 13 0 99 25 191 56 143 47 171 60 193 87 14 18 32
39 39 47 8 8 94 44 191 79 131 48 181 70 193 88 17 24 71 86 117 133 13 14 29
40 36 58 22 64 37 62 -472 62 l-458 0 -32 -40 -32 -40 -83 0 c-82 0 -84 0 -99
30 -8 16 -24 34 -34 40 -22 11 -923 15 -934 3z m937 -45 c9 -12 16 -26 16 -30
0 -5 -204 -8 -454 -8 l-455 0 -15 22 c-9 12 -16 26 -16 30 0 5 204 8 454 8
l455 0 15 -22z m1186 11 c0 -6 -5 -19 -10 -30 -10 -18 -26 -19 -471 -19 l-460
0 12 23 c7 12 17 25 23 29 18 13 906 10 906 -3z m-1550 -84 c0 -10 -10 -15
-32 -15 -18 0 -114 -7 -213 -15 -99 -8 -190 -15 -202 -15 -23 0 -48 33 -38 50
3 5 112 9 245 10 209 0 240 -1 240 -15z m980 -80 l0 -95 -480 0 -480 0 0 95 0
95 480 0 480 0 0 -95z m510 86 c0 -5 -8 -19 -18 -30 l-17 -22 -200 15 c-110 9
-212 16 -227 16 -18 0 -28 5 -28 15 0 13 34 15 245 15 136 0 245 -4 245 -9z
m-1490 -55 c0 -14 -1 -14 -279 -53 -120 -16 -124 -16 -137 2 -8 10 -14 22 -14
25 0 4 84 14 188 22 251 20 242 20 242 4z m1245 -7 c94 -7 171 -13 173 -15 2
-1 -2 -12 -8 -24 -14 -25 7 -26 -255 9 -82 12 -151 21 -152 21 -2 0 -3 7 -3
16 0 13 8 15 38 10 20 -3 114 -11 207 -17z m-1250 -58 c-13 -10 -220 -51 -260
-51 -16 1 -43 7 -60 14 -29 12 -27 13 60 26 50 7 126 18 170 25 76 11 111 6
90 -14z m1335 -22 c29 -2 -45 -28 -80 -28 -19 0 -82 10 -140 22 -76 16 -106
26 -108 38 -2 14 15 13 155 -7 87 -13 165 -24 173 -25z m-1332 -26 c-3 -18
-86 -51 -128 -52 -14 0 -38 6 -55 13 -29 12 -28 13 65 33 119 26 122 27 118 6z
m1102 -4 c52 -11 96 -22 99 -24 6 -7 -47 -25 -71 -25 -12 0 -45 8 -75 17 -38
12 -53 22 -53 35 0 10 1 18 3 18 2 0 45 -9 97 -21z m-1014 -36 c-2 -5 -24 -19
-49 -32 -34 -19 -52 -22 -80 -17 -21 4 -37 10 -37 14 0 13 83 40 128 41 24 0
41 -2 38 -6z m112 -1 c-7 -20 -144 -132 -160 -132 -20 0 -49 51 -33 57 6 2 39
21 75 43 58 35 127 54 118 32z m76 -29 c-64 -87 -117 -143 -134 -143 -10 0
-30 4 -44 10 -26 9 -25 11 61 89 66 60 95 80 117 80 l28 1 -28 -37z m106 33
c0 -11 -103 -196 -115 -206 -11 -9 -22 -9 -50 0 l-35 12 76 99 c59 77 82 99
100 99 13 0 24 -2 24 -4z m66 -12 c-3 -8 -15 -52 -27 -97 -29 -115 -45 -151
-65 -143 -9 3 -27 9 -40 12 -13 3 -24 8 -24 10 0 8 102 209 112 222 16 18 52
16 44 -4z m104 -89 c15 -55 31 -111 35 -125 6 -19 -2 -15 -35 23 -23 26 -48
47 -55 47 -8 0 -29 -18 -46 -40 -18 -22 -34 -38 -36 -36 -2 2 11 56 28 120 31
112 34 117 57 114 23 -3 28 -12 52 -103z m98 -14 l61 -118 -37 -11 c-50 -16
-58 -5 -93 120 -34 123 -34 128 -10 128 14 0 34 -31 79 -119z m88 23 c80 -102
83 -115 23 -117 -32 -2 -35 1 -85 93 -59 106 -63 120 -34 120 12 0 46 -33 96
-96z m98 16 c47 -41 82 -78 77 -83 -4 -4 -24 -10 -43 -13 -34 -6 -37 -4 -102
79 -36 47 -66 88 -66 92 0 3 11 5 25 3 13 -2 63 -37 109 -78z m77 40 c37 -22
72 -40 78 -40 16 0 13 -15 -7 -40 -25 -31 -44 -23 -128 55 -67 62 -68 64 -40
65 18 0 58 -17 97 -40z m112 24 c56 -19 60 -31 13 -39 -25 -5 -46 0 -85 19
-28 15 -51 29 -51 31 0 11 80 4 123 -11z"/>
<path d="M846 1233 c-18 -53 -20 -77 -5 -50 12 20 35 22 42 3 7 -17 50 -26 71
-14 22 13 20 44 -5 62 -28 19 -17 34 21 28 28 -4 30 -7 30 -48 0 -24 5 -44 10
-44 6 0 10 20 10 45 0 25 5 45 10 45 6 0 10 4 10 10 0 5 -27 9 -60 9 -51 -1
-60 -4 -66 -22 -5 -15 -1 -25 15 -35 11 -8 21 -21 21 -28 0 -16 -16 -19 -25
-4 -4 6 -10 8 -14 5 -4 -2 -14 14 -21 36 -8 22 -17 42 -21 45 -4 2 -14 -17
-23 -43z"/>
<path d="M1050 1261 c-18 -34 -12 -69 15 -87 24 -16 27 -16 45 1 22 20 27 74
8 93 -18 18 -56 14 -68 -7z m60 -43 c0 -32 -27 -50 -41 -27 -12 20 -11 53 3
67 17 17 38 -4 38 -40z"/>
<path d="M1140 1225 c0 -30 5 -55 10 -55 6 0 10 15 10 33 l1 32 29 -35 29 -35
-1 60 c0 49 -2 53 -7 25 l-6 -35 -24 33 c-14 17 -28 32 -33 32 -4 0 -8 -25 -8
-55z"/>
<path d="M1277 1266 c-4 -10 -6 -36 -6 -59 1 -39 2 -40 9 -12 l7 30 12 -30 13
-30 16 30 17 30 3 -27 c4 -31 35 -40 46 -13 3 8 12 15 21 15 8 0 15 -7 15 -15
0 -9 9 -15 25 -15 19 0 25 5 25 23 l0 22 20 -25 c19 -25 40 -23 24 2 -5 7 -9
29 -9 48 0 31 -3 35 -27 38 -27 3 -28 2 -29 -50 l-1 -53 -16 47 c-9 26 -20 49
-24 53 -3 4 -15 -17 -26 -47 l-20 -53 -9 55 -9 55 -19 -37 -19 -38 -16 37
c-13 31 -17 34 -23 19z m223 -21 c0 -8 -4 -15 -10 -15 -5 0 -10 7 -10 15 0 8
5 15 10 15 6 0 10 -7 10 -15z"/>
<path d="M1530 1270 c0 -5 5 -10 10 -10 6 0 10 -20 10 -45 0 -25 5 -45 10 -45
6 0 10 21 10 46 0 38 3 45 17 42 13 -2 17 -14 18 -46 0 -23 4 -41 8 -39 5 1 8
6 8 10 -1 4 -1 26 -1 50 l0 43 -45 3 c-26 1 -45 -2 -45 -9z"/>
<path d="M1640 1225 c0 -59 17 -76 22 -22 l3 32 20 -32 c10 -18 23 -33 27 -33
4 0 8 25 8 55 0 30 -4 55 -10 55 -5 0 -10 -15 -10 -32 l0 -33 -22 32 c-13 18
-26 33 -30 33 -5 0 -8 -25 -8 -55z"/>
</g>
</svg>
