<?xml version="1.0" standalone="no"?>
<!DOCTYPE svg PUBLIC "-//W3C//DTD SVG 20010904//EN"
 "http://www.w3.org/TR/2001/REC-SVG-20010904/DTD/svg10.dtd">
<svg version="1.0" xmlns="http://www.w3.org/2000/svg"
 width="256.000000pt" height="256.000000pt" viewBox="0 0 256.000000 256.000000"
 preserveAspectRatio="xMidYMid meet">

<g transform="translate(0.000000,256.000000) scale(0.100000,-0.100000)"
fill="#000000" stroke="none">
<path d="M1182 1639 c-29 -5 -68 -16 -88 -24 -29 -12 -112 -14 -501 -14 -434
1 -467 -1 -476 -17 -8 -14 -3 -23 22 -43 17 -14 31 -31 31 -37 0 -6 27 -33 60
-60 34 -27 74 -61 90 -76 16 -14 43 -29 59 -33 17 -4 34 -12 38 -19 11 -18 47
-36 72 -36 12 0 30 -9 41 -20 13 -13 33 -20 61 -20 24 0 47 -7 57 -16 11 -12
27 -15 59 -11 24 2 46 1 49 -4 3 -5 25 -9 49 -9 42 0 45 -2 64 -44 25 -57 92
-130 150 -163 25 -15 53 -32 61 -38 8 -7 29 -15 45 -19 17 -3 41 -9 55 -12 38
-8 154 -11 165 -5 6 3 19 7 30 8 33 3 80 16 85 22 3 4 27 20 54 35 71 41 118
88 151 148 35 64 39 68 92 68 23 0 44 4 47 9 3 5 25 6 49 4 32 -4 48 -1 59 11
10 9 33 16 57 16 27 0 48 7 59 18 11 11 36 22 58 25 21 4 46 15 54 25 8 10 31
24 50 31 19 6 44 21 55 31 11 11 48 43 83 72 34 28 62 56 62 62 0 6 14 23 32
38 26 21 31 30 23 43 -9 15 -54 17 -460 16 -248 -1 -457 -2 -465 -3 -8 -2 -46
8 -84 20 -81 26 -180 35 -254 21z m229 -25 c30 -9 59 -21 64 -26 7 -8 4 -9
-10 -3 -95 37 -235 46 -321 20 -53 -16 -71 -19 -61 -8 32 32 240 43 328 17z
m12 -25 c34 -11 38 -16 34 -38 -4 -19 3 -32 28 -56 29 -27 55 -64 55 -80 0 -3
-17 8 -37 24 -122 98 -346 99 -455 3 -37 -32 -17 9 22 48 44 43 44 43 30 71
-6 10 -7 19 -3 19 4 1 31 7 58 15 58 17 208 14 268 -6z m-863 -20 c102 -12
130 -19 130 -31 0 -6 -85 -9 -247 -6 -255 3 -293 9 -293 45 0 14 17 15 168 9
92 -4 201 -12 242 -17z m489 -4 c13 -14 21 -31 18 -38 -2 -6 -5 -16 -5 -20 0
-5 -11 -21 -25 -35 -14 -15 -29 -39 -32 -54 -4 -16 -11 -28 -16 -28 -14 0 -11
23 10 64 11 21 17 44 15 51 -7 19 -58 37 -86 32 -20 -4 -20 -4 5 -6 43 -2 67
-19 67 -46 0 -29 -59 -97 -67 -77 -2 6 -11 12 -18 12 -16 0 -89 68 -97 92 -4
9 -2 19 5 22 7 2 2 5 -11 5 -13 1 -30 -5 -38 -13 -12 -13 -11 -15 8 -19 23 -4
23 -4 -2 -15 -25 -11 -25 -11 8 -11 19 -1 31 -5 27 -11 -3 -5 -1 -10 5 -10 7
0 10 -7 6 -15 -4 -10 1 -15 14 -15 11 0 20 -3 20 -6 0 -12 -34 -33 -52 -34
-20 0 -24 26 -5 34 6 2 2 4 -10 3 -12 -1 -22 2 -22 6 0 5 -8 15 -18 23 -10 7
-14 14 -9 14 6 0 3 6 -6 13 -9 6 -19 22 -23 35 -5 19 -3 22 22 23 15 0 -10 10
-57 20 -47 11 -89 21 -95 23 -5 3 91 5 215 5 l225 1 24 -25z m926 19 c-5 -2
-50 -13 -100 -23 -55 -12 -77 -20 -57 -20 30 -1 33 -3 27 -23 -4 -13 -13 -27
-19 -33 -7 -5 -11 -16 -9 -22 3 -7 -2 -13 -11 -13 -10 0 -13 -6 -9 -16 5 -14
1 -16 -23 -11 -16 3 -23 4 -16 1 18 -8 15 -34 -5 -34 -19 1 -53 22 -53 34 0 3
9 6 20 6 13 0 18 5 14 15 -4 8 -1 15 6 15 6 0 8 5 5 10 -4 6 8 10 27 11 33 0
33 0 8 11 -25 11 -25 11 -2 15 19 4 20 6 8 19 -8 8 -25 14 -38 13 -13 0 -18
-3 -11 -5 7 -3 9 -13 6 -22 -9 -24 -81 -92 -98 -92 -7 0 -16 -6 -18 -12 -8
-20 -67 48 -67 77 0 27 24 44 67 46 25 2 25 2 5 6 -28 5 -79 -13 -86 -32 -2
-7 4 -30 15 -51 21 -41 24 -64 10 -64 -5 0 -12 12 -16 28 -3 15 -18 39 -32 54
-14 14 -24 28 -23 30 1 1 -2 11 -5 20 -5 12 1 27 16 43 l24 25 225 -1 c124 0
221 -2 215 -5z m435 -9 c0 -34 -40 -40 -292 -43 -158 -3 -248 0 -248 6 0 22
202 45 448 50 75 2 92 -1 92 -13z m-1329 -12 c13 -17 13 -17 -6 -3 -11 8 -22
16 -24 17 -2 2 0 3 6 3 6 0 17 -8 24 -17z m412 -1 c-10 -10 -20 -17 -22 -16
-6 5 20 34 30 34 5 0 1 -8 -8 -18z m-412 -55 c-10 -9 -11 -8 -5 6 3 10 9 15
12 12 3 -3 0 -11 -7 -18z m403 7 c3 -8 2 -12 -4 -9 -6 3 -10 10 -10 16 0 14 7
11 14 -7z m-791 -9 c-4 -17 -69 -25 -258 -31 -178 -7 -225 -1 -225 26 0 6 84
11 203 13 270 4 282 4 280 -8z m1478 5 c176 0 205 -6 157 -31 -26 -14 -223
-13 -358 2 -102 11 -114 15 -104 31 4 7 29 8 67 4 33 -3 140 -6 238 -6z m-736
-45 c99 -51 142 -129 122 -224 -12 -59 -75 -121 -153 -151 -83 -31 -216 -26
-289 12 -81 42 -135 115 -135 183 0 64 54 141 125 177 64 33 85 37 181 35 79
-2 98 -6 149 -32z m-725 1 c0 -15 -56 -27 -245 -52 -115 -15 -156 -12 -176 12
-9 11 -8 14 6 14 36 0 370 32 374 36 10 10 41 3 41 -10z m1370 -11 c91 -8 174
-15 185 -15 19 -1 18 -2 -5 -21 -21 -18 -32 -20 -95 -14 -93 9 -291 41 -304
50 -24 14 -10 27 22 21 17 -3 106 -13 197 -21z m-1340 -30 c0 -15 -27 -24
-168 -55 -89 -20 -150 -24 -189 -14 -43 12 -23 20 90 38 61 10 139 24 172 31
81 17 95 18 95 0z m1298 -21 c89 -16 162 -32 162 -35 0 -10 -40 -19 -85 -19
-37 0 -158 24 -254 50 -48 13 -60 46 -13 37 15 -3 100 -18 190 -33z m-1173
-21 c-20 -18 -30 -22 -33 -13 -5 15 25 40 47 40 11 -1 7 -9 -14 -27z m856 9
c14 -12 18 -21 11 -26 -6 -3 -23 5 -39 19 -21 18 -24 24 -12 25 9 0 27 -8 40
-18z m-946 -2 c11 -17 -136 -75 -220 -87 -46 -6 -102 3 -90 15 6 6 263 77 292
81 6 0 14 -3 18 -9z m1180 -30 c77 -19 142 -36 145 -38 11 -8 -28 -22 -62 -22
-38 0 -182 41 -231 67 -26 13 -29 38 -4 31 7 -2 75 -19 152 -38z m-1047 18
c-6 -17 -36 -34 -45 -24 -4 4 1 14 11 22 24 17 39 18 34 2z m778 -2 c22 -17
11 -35 -13 -20 -19 12 -29 34 -16 34 5 0 18 -6 29 -14z m-736 -9 c0 -8 -9 -22
-20 -32 -18 -16 -20 -17 -26 -1 -4 11 1 22 12 31 24 18 34 19 34 2z m694 -2
c11 -9 16 -20 12 -31 -6 -16 -8 -15 -26 1 -20 18 -27 45 -12 45 4 0 15 -7 26
-15z m-830 -27 c-4 -6 -36 -24 -73 -40 -67 -31 -181 -50 -181 -31 0 6 42 25
93 43 50 18 103 38 117 45 26 14 56 2 44 -17z m157 0 c-9 -25 -31 -36 -31 -16
0 15 19 38 32 38 4 0 4 -10 -1 -22z m643 -1 c15 -24 -3 -35 -20 -13 -8 11 -14
24 -14 29 0 13 22 3 34 -16z m274 -19 c61 -23 112 -45 112 -50 0 -16 -81 -7
-144 16 -77 27 -119 53 -111 66 10 16 23 13 143 -32z m-1033 3 c14 -23 -137
-100 -170 -87 -18 7 -20 26 -2 26 7 0 44 15 82 34 79 39 82 40 90 27z m936
-26 c41 -19 80 -35 87 -35 8 0 12 -6 9 -12 -8 -24 -79 -10 -134 27 -30 20 -51
40 -48 45 8 13 4 15 86 -25z m-918 -35 c-26 -25 -52 -40 -68 -40 -14 0 -25 3
-25 8 0 12 94 71 115 71 16 0 12 -7 -22 -39z m858 8 c57 -38 63 -53 17 -44
-38 8 -114 76 -85 76 10 0 40 -15 68 -32z m-806 -28 c-27 -28 -55 -40 -55 -23
0 4 14 22 32 40 21 22 35 30 42 23 7 -7 0 -20 -19 -40z m765 -22 c0 -17 -28
-7 -54 21 -41 43 -23 61 20 20 19 -18 34 -37 34 -41z m-77 18 c17 -26 13 -36
-14 -36 -20 0 -28 17 -21 43 6 23 17 21 35 -7z m-634 -28 c1 -10 -33 -10 -42
-1 -4 3 1 15 10 25 17 19 18 19 24 1 4 -10 8 -21 8 -25z m-14 -28 c22 0 40 -9
61 -31 16 -17 46 -40 67 -50 20 -11 37 -21 37 -24 0 -7 -42 -75 -46 -75 -16 0
-73 38 -111 73 -52 47 -90 113 -70 120 6 2 16 1 22 -4 5 -5 23 -9 40 -9z m662
-47 c-14 -21 -35 -47 -48 -59 -31 -27 -101 -74 -111 -74 -8 0 -48 60 -48 72 0
3 20 18 44 32 24 14 54 38 67 53 19 22 31 27 58 25 18 -2 39 2 45 8 22 23 17
-18 -7 -57z m-655 -78 c24 -20 59 -45 78 -55 19 -11 29 -19 22 -20 -37 -1
-150 99 -183 162 -30 58 -22 59 11 2 16 -29 48 -68 72 -89z m701 118 c-22 -60
-100 -145 -162 -177 -54 -29 -47 -17 15 24 62 40 97 78 128 138 18 34 30 44
19 15z m-508 -120 c-4 -10 -12 -31 -17 -48 -19 -52 -43 -71 -54 -41 -7 18 47
106 64 106 10 0 12 -6 7 -17z m268 -33 c28 -49 29 -70 3 -70 -12 0 -56 88 -56
111 0 25 28 3 53 -41z m-227 24 c-3 -9 -9 -34 -12 -56 -7 -40 -27 -59 -45 -41
-13 13 29 113 48 113 10 0 13 -6 9 -16z m38 -7 c0 -9 -1 -37 -2 -62 -2 -38 -5
-45 -22 -45 -23 0 -24 10 -8 79 6 29 16 50 22 48 6 -2 11 -11 10 -20z m93 -33
c17 -66 16 -74 -6 -74 -20 0 -31 34 -31 97 0 50 21 37 37 -23z m46 9 c21 -59
21 -73 2 -73 -17 0 -30 27 -40 84 -11 55 17 47 38 -11z m-93 -22 c0 -61 -7
-75 -28 -62 -18 11 -4 121 14 121 10 0 14 -16 14 -59z"/>
<path d="M1175 1476 c-115 -36 -175 -102 -175 -191 0 -78 45 -136 135 -176
223 -99 487 70 395 252 -52 101 -223 157 -355 115z m192 -46 c44 -26 52 -63
24 -101 l-22 -30 30 -28 c39 -36 39 -62 2 -103 -27 -30 -34 -33 -106 -36 -54
-3 -89 0 -118 12 l-42 16 0 130 0 130 30 15 c46 22 162 20 202 -5z"/>
<path d="M1242 1398 c-34 -34 2 -98 48 -83 24 7 37 51 23 74 -13 20 -54 26
-71 9z"/>
<path d="M1246 1264 c-19 -18 -21 -65 -4 -82 17 -17 63 -15 78 3 43 52 -27
127 -74 79z"/>
</g>
</svg>
