<?xml version="1.0" standalone="no"?>
<!DOCTYPE svg PUBLIC "-//W3C//DTD SVG 20010904//EN"
 "http://www.w3.org/TR/2001/REC-SVG-20010904/DTD/svg10.dtd">
<svg version="1.0" xmlns="http://www.w3.org/2000/svg"
 width="900.000000pt" height="844.000000pt" viewBox="0 0 900.000000 844.000000"
 preserveAspectRatio="xMidYMid meet">

<g transform="translate(0.000000,844.000000) scale(0.100000,-0.100000)"
fill="#000000" stroke="none">
<path d="M3250 8041 c-165 -54 -402 -142 -397 -147 2 -2 19 1 38 6 18 6 41 10
49 9 8 0 -7 -7 -35 -15 -27 -7 -55 -12 -62 -9 -6 2 -13 1 -15 -4 -2 -4 -39
-20 -83 -35 -85 -29 -386 -173 -420 -200 -18 -15 -17 -15 20 0 188 76 264 105
430 160 105 34 251 75 325 89 74 15 142 30 150 32 21 7 79 8 86 1 3 -4 -5 -9
-18 -13 -54 -17 -408 -159 -460 -186 -32 -16 -63 -27 -70 -25 -7 1 -9 1 -4 -2
4 -2 -48 -33 -115 -69 -564 -294 -1040 -715 -1376 -1218 -190 -285 -365 -692
-438 -1020 -152 -682 -83 -1435 188 -2040 70 -157 90 -194 100 -188 6 3 7 1 3
-5 -9 -15 52 -135 64 -127 6 3 10 8 10 11 0 3 -4 2 -10 -1 -5 -3 -10 1 -10 10
0 9 4 14 9 10 5 -3 13 0 17 6 5 8 3 9 -6 4 -10 -6 -12 -4 -7 9 5 11 3 15 -5
10 -8 -5 -9 -2 -5 10 4 9 3 15 -2 12 -5 -3 -11 1 -15 9 -3 8 -1 17 4 20 6 4
10 0 10 -7 0 -10 3 -9 10 2 7 11 11 9 19 -12 5 -14 15 -29 20 -33 6 -3 -14 45
-45 107 -30 62 -59 112 -64 111 -5 -2 -7 3 -4 10 2 7 -7 40 -22 72 -75 171
-166 480 -203 695 -60 344 -62 759 -5 1088 167 973 786 1811 1758 2379 223
131 469 245 749 348 l158 58 -28 29 c-39 41 -118 98 -134 98 -8 -1 -79 -22
-159 -49z m-63 -108 c-20 -2 -52 -2 -70 0 -17 2 0 4 38 4 39 0 53 -2 32 -4z
m-129 -10 c-10 -2 -26 -2 -35 0 -10 3 -2 5 17 5 19 0 27 -2 18 -5z m-65 -10
c-7 -2 -19 -2 -25 0 -7 3 -2 5 12 5 14 0 19 -2 13 -5z m-1896 -4535 c-3 -8 -6
-5 -6 6 -1 11 2 17 5 13 3 -3 4 -12 1 -19z m-24 -25 c-6 -15 -4 -16 8 -6 13
10 16 10 16 -2 0 -8 -4 -12 -9 -9 -4 3 -8 1 -8 -5 0 -19 19 -21 30 -4 7 12 10
13 7 3 -3 -8 6 -26 19 -40 12 -14 24 -32 26 -40 2 -8 9 -21 16 -28 7 -8 10
-17 7 -22 -3 -5 0 -10 7 -12 6 -2 12 -12 14 -21 1 -9 -1 -15 -6 -12 -4 3 -13
-2 -20 -10 -9 -11 -8 -19 4 -37 9 -12 16 -27 16 -32 0 -19 -33 37 -36 59 -4
42 -15 65 -27 59 -7 -4 -9 -4 -5 1 4 4 3 14 -2 21 -6 6 -10 16 -9 20 1 5 1 18
-1 29 l-1 20 -9 -20 c-6 -14 -9 -15 -9 -4 -1 8 4 20 10 26 8 8 8 13 0 17 -6 4
-11 1 -11 -6 0 -7 -10 1 -21 19 -11 18 -18 37 -14 43 10 16 15 12 8 -7z"/>
<path d="M1127 3270 c3 -11 9 -17 15 -14 5 3 4 12 -3 20 -16 19 -18 18 -12 -6z"/>
<path d="M1141 3241 c-11 -7 -9 -15 13 -43 14 -19 23 -39 18 -44 -4 -4 2 -2
12 6 18 14 18 15 2 18 -10 2 -15 10 -12 17 2 8 -2 19 -9 25 -8 7 -12 16 -9 21
7 11 3 11 -15 0z m20 -28 c13 -16 12 -17 -3 -4 -10 7 -18 15 -18 17 0 8 8 3
21 -13z"/>
<path d="M5414 7978 c-3 -5 -4 -11 -2 -13 2 -2 78 -32 168 -66 380 -142 647
-277 960 -484 640 -425 1127 -1012 1369 -1649 208 -546 260 -1175 145 -1755
-8 -40 -13 -76 -10 -78 3 -3 8 12 11 33 4 22 14 66 22 98 8 33 15 68 16 77 1
10 5 15 11 12 5 -4 7 1 3 11 -4 10 -3 15 3 11 11 -7 9 -33 -3 -52 -5 -7 -5
-18 -1 -25 4 -7 3 -8 -4 -4 -8 5 -12 0 -12 -13 0 -10 -2 -28 -5 -38 -3 -10 1
-6 8 10 7 15 16 25 20 21 3 -4 4 5 2 19 -3 16 0 27 9 30 9 4 13 15 10 29 -4
21 -4 21 5 3 4 -11 5 -24 2 -30 -4 -5 -9 -28 -10 -50 -2 -22 -6 -44 -9 -50 -4
-5 -5 -19 -4 -31 2 -11 -2 -32 -7 -47 -6 -15 -7 -27 -2 -27 11 0 46 177 68
345 24 181 24 627 0 808 -72 536 -263 1022 -570 1452 -348 485 -851 898 -1442
1180 -244 117 -737 296 -751 273z m2742 -3752 c1 -10 0 -15 -4 -12 -3 4 -12
-4 -19 -16 -7 -13 -12 -17 -13 -10 0 7 -5 10 -11 6 -8 -4 -8 0 0 15 7 11 9 21
6 21 -4 0 -4 4 -1 9 10 15 39 6 42 -13z"/>
<path d="M8123 4217 c-1 -11 -1 -18 0 -16 2 2 8 11 15 20 9 12 9 16 -1 16 -7
0 -14 -9 -14 -20z"/>
<path d="M5715 7921 c17 -5 86 -21 154 -36 196 -42 543 -153 753 -241 80 -33
83 -30 13 13 -171 104 -438 212 -610 248 -84 18 -364 32 -310 16z"/>
<path d="M6767 7725 c87 -127 181 -225 351 -367 81 -67 173 -144 205 -171 31
-26 57 -45 57 -41 0 15 -183 218 -319 354 -123 123 -247 233 -335 300 -11 8 8
-25 41 -75z"/>
<path d="M2234 7787 c-3 -9 -12 -13 -19 -11 -7 3 -16 1 -20 -5 -4 -7 1 -8 12
-4 10 3 -7 -21 -38 -53 -31 -32 -73 -86 -94 -119 -20 -33 -47 -71 -59 -84
l-21 -24 21 11 c52 27 248 282 230 299 -3 3 -8 -1 -12 -10z"/>
<path d="M2107 7724 c-27 -14 -47 -28 -44 -31 5 -5 97 45 97 53 0 6 0 6 -53
-22z"/>
<path d="M2675 7678 c-38 -10 -145 -32 -237 -48 -92 -16 -173 -32 -180 -36 -7
-4 -52 -31 -100 -61 -83 -53 -86 -55 -78 -83 4 -16 5 -32 2 -36 -4 -4 -2 -4 4
-1 6 4 9 19 6 33 -3 17 -1 25 6 21 5 -4 12 0 16 8 3 8 13 15 21 15 9 0 13 4
10 10 -4 6 1 7 12 3 30 -10 34 -14 27 -24 -4 -6 -11 -6 -19 1 -9 8 -15 8 -20
0 -3 -6 -10 -8 -14 -6 -4 3 -13 -4 -20 -16 -7 -12 -8 -17 -1 -13 7 4 9 -2 6
-19 -3 -14 2 -30 10 -37 10 -8 11 -15 4 -24 -8 -10 -8 -15 1 -21 7 -4 9 -3 6
3 -3 5 12 27 33 48 l39 38 10 -24 c5 -13 10 -18 10 -10 1 8 9 23 18 33 13 15
14 19 3 16 -8 -2 -14 5 -15 15 0 9 5 17 10 16 6 -1 9 -5 7 -11 -1 -5 2 -7 8
-3 6 3 8 10 5 15 -3 5 -1 11 5 15 6 4 7 12 3 18 -4 7 -7 23 -6 37 l2 25 -9
-25 -9 -25 2 25 c1 14 8 24 15 23 6 -2 12 3 12 10 0 8 4 7 10 -3 8 -13 10 -13
10 -1 0 11 3 11 13 -3 12 -16 14 -15 35 8 13 16 33 26 49 27 16 0 35 2 43 4
46 9 108 19 132 19 14 1 24 5 21 9 -2 4 7 6 21 3 15 -3 24 -1 21 5 -4 5 9 9
27 9 18 1 49 9 68 20 42 23 36 23 -55 -2z m-344 -101 c-10 -9 -11 -8 -5 6 3
10 9 15 12 12 3 -3 0 -11 -7 -18z m-101 -37 c0 10 4 9 14 -5 16 -23 19 -35 9
-34 -5 1 -7 4 -6 8 1 4 -9 7 -22 7 -13 0 -21 -4 -18 -10 4 -5 1 -6 -7 -1 -9 6
-11 4 -5 -6 7 -12 6 -12 -6 0 -11 10 -11 15 -1 18 6 3 9 10 6 15 -4 7 -2 8 4
4 7 -4 12 -1 12 6 0 9 3 9 10 -2 8 -13 10 -13 10 0z m3 -53 c-4 -7 -8 -16 -8
-22 0 -5 -8 -10 -17 -10 -10 0 -18 5 -17 10 1 6 6 9 13 7 6 -2 8 0 4 4 -10 9
12 35 23 28 5 -3 6 -11 2 -17z m-58 -37 c-2 -4 8 -6 23 -5 33 2 44 -3 36 -16
-4 -6 -11 -6 -19 1 -9 8 -15 8 -20 0 -3 -6 -11 -7 -17 -4 -6 4 -8 2 -5 -3 4
-6 -2 -18 -12 -27 -15 -14 -21 -15 -27 -4 -24 36 5 100 33 76 7 -6 11 -14 8
-18z"/>
<path d="M2144 7436 c1 -14 4 -28 7 -31 3 -3 5 6 5 19 -1 14 -4 28 -7 31 -3 3
-5 -6 -5 -19z"/>
<path d="M2482 7598 c-2 -10 -8 -15 -13 -12 -5 3 -6 10 -3 16 4 7 2 8 -5 4 -8
-6 -9 -12 -2 -20 6 -7 7 -17 3 -22 -4 -4 0 -3 9 4 9 6 18 9 22 6 3 -3 3 3 1
13 -4 14 0 20 11 20 9 0 14 -6 11 -14 -8 -19 2 -16 13 5 8 15 6 18 -16 18 -16
0 -28 -7 -31 -18z"/>
<path d="M2429 7608 c-6 -21 -5 -37 2 -32 5 3 9 0 9 -7 0 -7 3 -9 6 -6 4 4 2
13 -4 20 -7 8 -9 17 -5 20 3 4 3 7 0 7 -4 0 -7 -1 -8 -2z"/>
<path d="M2351 7570 c-12 -18 -17 -31 -11 -35 6 -4 7 -12 3 -18 -4 -7 0 -6 10
2 18 14 22 23 10 19 -5 -2 -8 2 -8 7 0 6 4 9 8 7 5 -1 6 1 3 6 -2 4 -1 14 5
22 5 8 9 10 9 4 0 -6 6 -11 13 -11 20 0 17 23 -3 24 -10 1 -27 -11 -39 -27z"/>
<path d="M2281 7554 c0 -11 3 -14 6 -6 3 7 2 16 -1 19 -3 4 -6 -2 -5 -13z"/>
<path d="M2301 7559 c-1 -9 7 -23 17 -30 15 -12 16 -12 6 1 -6 8 -14 22 -17
30 -5 13 -6 12 -6 -1z"/>
<path d="M2381 7544 c0 -11 3 -14 6 -6 3 7 2 16 -1 19 -3 4 -6 -2 -5 -13z"/>
<path d="M2417 7538 c19 -21 31 -25 14 -5 -6 8 -9 16 -6 19 3 2 -2 5 -10 5
-13 0 -13 -3 2 -19z"/>
<path d="M2290 7523 c7 -3 7 -11 0 -24 -6 -10 -8 -19 -4 -19 3 0 0 -8 -7 -17
-11 -15 -11 -16 1 -6 8 7 15 18 16 25 1 7 3 19 5 27 2 7 -2 15 -9 17 -7 1 -8
0 -2 -3z"/>
<path d="M2316 7501 c-3 -5 2 -15 12 -22 15 -12 16 -12 5 2 -7 9 -10 19 -6 22
3 4 4 7 0 7 -3 0 -8 -4 -11 -9z"/>
<path d="M2346 7487 c3 -10 9 -15 12 -12 3 3 0 11 -7 18 -10 9 -11 8 -5 -6z"/>
<path d="M2005 7432 c-60 -43 -259 -198 -277 -215 -7 -7 -32 -29 -56 -49 -67
-60 -37 -44 38 20 85 72 121 98 132 94 5 -1 7 2 3 7 -7 12 29 33 40 23 3 -4 5
-2 3 3 -2 6 2 10 7 10 6 0 9 -4 7 -9 -2 -5 4 -3 13 4 9 7 13 20 10 28 -3 9 0
12 9 9 10 -4 13 -1 9 9 -7 19 6 18 31 -3 21 -18 21 -18 2 5 -20 22 -10 32 12
10 9 -9 11 -6 7 11 -3 14 0 21 8 18 7 -2 11 -13 11 -25 -1 -12 2 -19 6 -17 5
3 6 18 4 34 -3 17 0 32 7 37 9 5 10 2 6 -9 -3 -9 -1 -19 5 -23 6 -4 9 -3 6 2
-3 5 -2 18 3 29 6 17 8 16 9 -10 2 -16 2 -34 1 -38 -1 -5 2 -6 7 -3 9 5 3 86
-7 85 -3 0 -28 -17 -56 -37z m-85 -92 c0 -5 -2 -10 -4 -10 -3 0 -8 5 -11 10
-3 6 -1 10 4 10 6 0 11 -4 11 -10z"/>
<path d="M2300 7450 c-6 -11 -8 -20 -6 -20 3 0 10 9 16 20 6 11 8 20 6 20 -3
0 -10 -9 -16 -20z"/>
<path d="M2255 7420 c-10 -11 -16 -22 -13 -25 3 -3 13 6 22 20 20 30 16 32 -9
5z"/>
<path d="M2090 7396 c0 -2 8 -10 18 -17 15 -13 16 -12 3 4 -13 16 -21 21 -21
13z"/>
<path d="M2089 7368 c7 -9 9 -23 5 -30 -6 -10 -4 -11 7 0 11 10 10 15 -6 30
-17 15 -18 15 -6 0z"/>
<path d="M2160 7365 c-7 -8 -9 -15 -5 -15 4 0 1 -8 -6 -17 -13 -16 -12 -17 4
-4 9 8 15 16 12 19 -3 3 0 11 6 19 6 7 9 13 6 13 -2 0 -10 -7 -17 -15z"/>
<path d="M2069 7338 c-6 -20 -6 -39 0 -42 4 -3 7 6 7 20 0 20 -4 32 -7 22z"/>
<path d="M2057 7279 c7 -7 15 -10 18 -7 3 3 -2 9 -12 12 -14 6 -15 5 -6 -5z"/>
<path d="M1983 7243 c0 -9 4 -10 14 -2 7 6 13 12 13 14 0 1 -6 2 -13 2 -8 0
-14 -6 -14 -14z"/>
<path d="M1930 7235 c-7 -8 -9 -15 -5 -15 4 0 2 -6 -4 -14 -9 -11 -9 -16 0
-22 7 -4 9 -3 6 3 -7 11 11 31 26 31 5 0 12 3 15 7 4 4 0 5 -8 3 -8 -1 -14 3
-12 10 3 16 -3 15 -18 -3z"/>
<path d="M1969 7203 c-13 -16 -12 -17 4 -4 9 7 17 15 17 17 0 8 -8 3 -21 -13z"/>
<path d="M1914 7148 l-19 -23 23 19 c21 18 27 26 19 26 -2 0 -12 -10 -23 -22z"/>
<path d="M1866 7151 c-3 -5 2 -15 12 -22 15 -12 16 -12 5 2 -7 9 -10 19 -6 22
3 4 4 7 0 7 -3 0 -8 -4 -11 -9z"/>
<path d="M1799 7123 c-7 -10 -9 -15 -5 -11 5 4 15 3 22 -3 8 -7 14 -7 19 1 4
6 1 9 -7 8 -7 -2 -12 3 -10 10 3 17 -3 15 -19 -5z"/>
<path d="M1555 7058 l-60 -63 63 60 c58 55 67 65 59 65 -1 0 -29 -28 -62 -62z"/>
<path d="M1806 7091 c2 -3 -42 -20 -98 -38 -56 -18 -135 -51 -176 -73 -40 -22
-76 -40 -80 -40 -3 0 5 12 19 28 23 26 23 26 -9 -2 -34 -31 -40 -41 -19 -31 6
4 -1 -4 -18 -16 -91 -68 -224 -224 -290 -339 -5 -8 29 21 76 65 171 163 379
314 552 401 48 24 87 45 87 47 0 1 -11 2 -24 2 -13 0 -22 -2 -20 -4z"/>
<path d="M7255 7012 c234 -140 393 -254 518 -371 67 -63 70 -64 47 -26 -99
167 -224 286 -389 370 -45 23 -280 105 -300 105 -3 0 53 -35 124 -78z"/>
<path d="M1047 6776 c-38 -81 -93 -208 -123 -282 -54 -132 -187 -514 -179
-514 19 0 236 437 288 580 37 99 90 320 85 348 -2 9 -34 -50 -71 -132z"/>
<path d="M7860 6903 c-1 -37 46 -238 76 -326 53 -152 275 -600 290 -584 2 2
-11 37 -29 78 -19 41 -82 198 -140 349 -128 333 -196 499 -197 483z"/>
<path d="M1520 6760 c-25 -22 -40 -40 -35 -39 6 0 28 18 50 39 51 51 43 51
-15 0z"/>
<path d="M1370 6660 c-9 -6 -10 -10 -3 -10 6 0 15 5 18 10 8 12 4 12 -15 0z"/>
<path d="M1330 6640 c-9 -6 -10 -10 -3 -10 6 0 15 5 18 10 8 12 4 12 -15 0z"/>
<path d="M1208 6584 c-38 -19 -68 -36 -68 -39 0 -4 100 42 135 63 43 25 -4 9
-67 -24z"/>
<path d="M1045 6114 c-204 -167 -341 -339 -400 -504 -21 -58 -75 -263 -71
-267 2 -2 11 18 21 44 32 86 136 283 205 387 75 113 159 219 250 316 106 112
106 114 -5 24z"/>
<path d="M7900 6112 c182 -216 407 -550 469 -697 49 -115 49 -101 0 75 -68
242 -195 426 -409 594 -109 86 -109 86 -60 28z"/>
<path d="M1570 5982 c0 -5 108 -194 240 -420 l240 -411 0 -63 c0 -317 96
-1522 136 -1718 79 -384 226 -493 1019 -753 576 -190 1058 -332 1247 -367 43
-8 69 -4 206 31 86 22 227 62 312 89 85 26 250 76 365 110 116 35 361 114 545
177 474 161 649 252 766 397 54 66 78 116 108 218 51 176 106 761 151 1607
l15 284 49 81 c114 190 432 739 429 741 -2 2 -39 -15 -82 -38 l-79 -42 -207
-356 -207 -355 -12 -250 c-38 -778 -93 -1412 -137 -1594 -56 -228 -203 -369
-508 -490 -141 -56 -665 -227 -901 -295 -126 -37 -286 -84 -355 -105 -167 -52
-401 -110 -442 -110 -36 0 -220 48 -418 110 -69 21 -222 66 -340 100 -245 70
-786 249 -953 316 -150 60 -239 114 -317 193 -166 167 -189 287 -255 1321 -13
212 -29 479 -35 594 l-10 209 -164 281 c-90 155 -183 316 -207 358 -42 74 -48
79 -121 118 -43 23 -78 37 -78 32z"/>
<path d="M3278 5773 c-897 -2 -1208 -6 -1208 -14 0 -16 292 -510 298 -504 5 4
-89 175 -145 262 -18 29 -33 54 -33 57 0 2 -22 41 -50 85 -27 44 -50 85 -50
91 0 7 393 10 1200 10 1136 0 1200 -1 1200 -17 1 -10 0 -168 0 -350 l-1 -333
521 0 520 0 0 350 0 350 680 0 c374 0 680 -2 680 -5 0 -2 -14 -27 -30 -55 -40
-68 -71 -130 -66 -130 6 0 116 193 116 203 0 4 -546 6 -1212 5 -667 -2 -1756
-4 -2420 -5z"/>
<path d="M5560 5405 l0 -115 531 0 c502 0 531 -1 524 -17 -17 -41 -25 -93 -25
-165 l0 -78 -515 0 -515 0 0 -340 0 -340 508 -2 c443 -3 507 -5 507 -18 0 -13
-122 -15 -1038 -15 l-1037 0 -2 -80 c-5 -196 -2 -405 5 -405 4 0 7 106 7 235
l0 235 1030 0 1030 0 0 -122 c0 -68 -3 -180 -7 -250 l-6 -128 -1031 -2 -1031
-3 -3 -182 -2 -183 1025 0 c904 0 1025 -2 1025 -15 0 -13 -120 -15 -1018 -15
l-1019 0 -6 -197 c-4 -108 -7 -276 -7 -375 0 -147 2 -178 14 -178 8 0 65 11
128 24 62 14 318 66 568 116 641 129 802 171 1033 270 204 88 278 170 313 345
14 73 36 646 53 1417 l9 418 68 117 c37 65 73 127 80 138 l14 21 -605 2 -605
1 0 -114z m948 -2086 c-44 -132 -182 -222 -491 -324 -182 -60 -325 -93 -1005
-230 -261 -53 -480 -99 -488 -102 -12 -4 -14 50 -14 356 l0 361 1009 0 1010 0
-21 -61z"/>
<path d="M314 5333 c13 -171 48 -421 97 -690 27 -150 49 -282 49 -293 0 -10 3
-21 8 -23 8 -6 -2 475 -12 574 -12 111 -37 219 -78 338 -22 64 -44 131 -49
149 -17 55 -22 36 -15 -55z"/>
<path d="M8657 5413 c-3 -4 -30 -86 -61 -181 -39 -121 -60 -206 -70 -285 -15
-109 -34 -657 -23 -647 10 9 115 545 127 645 12 106 38 468 34 473 -1 2 -4 0
-7 -5z"/>
<path d="M2373 5144 c4 -54 7 -141 7 -191 l0 -93 1040 0 1040 0 0 180 0 180
-172 1 c-95 1 -560 2 -1033 3 -496 0 -866 5 -874 10 -12 8 -13 -6 -8 -90z"/>
<path d="M8752 4907 c-3 -85 -42 -249 -79 -337 -20 -47 -63 -132 -96 -189 -71
-126 -82 -155 -90 -247 -34 -369 -203 -916 -375 -1211 -23 -38 -57 -105 -77
-149 -35 -77 -35 -78 -9 -54 48 46 361 394 422 470 33 41 88 118 123 170 55
82 75 118 120 211 12 25 51 240 45 247 -3 3 -2 10 3 16 20 24 43 324 44 561 1
274 -9 419 -26 408 -9 -5 -9 -3 -2 8 6 8 8 42 4 79 -5 60 -6 61 -7 17z m4
-172 c-1 -8 -8 -21 -16 -28 -10 -10 -11 -9 -4 3 5 8 9 18 10 23 3 14 4 17 8
17 2 0 3 -7 2 -15z m-6 -65 c0 -10 -10 -24 -22 -30 -22 -10 -22 -10 -4 4 10 9
16 22 13 31 -4 8 -2 15 3 15 6 0 10 -9 10 -20z m0 -44 c0 -2 -7 -7 -16 -10 -8
-3 -12 -2 -9 4 6 10 25 14 25 6z m-10 -32 c0 -2 -11 -3 -24 -2 -14 1 -23 5
-20 9 4 7 44 0 44 -7z m-10 -43 c3 -2 -3 -1 -12 2 -10 3 -20 2 -23 -3 -4 -6
-1 -10 5 -10 6 0 8 -5 4 -11 -10 -16 -23 9 -17 32 5 19 12 17 43 -10z m-60
-41 c-6 -11 -13 -20 -16 -20 -2 0 0 9 6 20 6 11 13 20 16 20 2 0 0 -9 -6 -20z
m34 -29 c4 -5 -1 -8 -9 -7 -21 3 -31 16 -12 16 9 0 18 -4 21 -9z m-54 -38 c0
-9 -3 -14 -6 -10 -4 3 -15 -4 -26 -16 -16 -18 -16 -16 2 11 24 36 30 39 30 15z
m40 13 c0 -2 -7 -7 -16 -10 -8 -3 -12 -2 -9 4 6 10 25 14 25 6z m-28 -48 c-14
-14 -44 -20 -36 -7 3 5 9 7 14 4 5 -3 11 -1 15 5 3 5 9 10 13 10 3 0 1 -5 -6
-12z m-52 -22 c0 -2 -8 -10 -17 -17 -16 -13 -17 -12 -4 4 13 16 21 21 21 13z
m40 -869 c0 -2 -10 -12 -22 -23 l-23 -19 19 23 c18 21 26 27 26 19z m-70 -61
c0 -2 -8 -10 -17 -17 -16 -13 -17 -12 -4 4 13 16 21 21 21 13z"/>
<path d="M471 4894 c0 -11 3 -14 6 -6 3 7 2 16 -1 19 -3 4 -6 -2 -5 -13z"/>
<path d="M2385 4686 c3 -93 5 -212 5 -264 0 -53 3 -93 6 -89 4 3 6 114 5 246
l-2 241 1033 3 1033 2 -1037 3 c-817 1 -1038 5 -1042 15 -4 6 -4 -64 -1 -157z"/>
<path d="M4492 4683 l3 -118 524 -3 c475 -2 523 -1 517 14 -3 8 -6 63 -6 120
l0 104 -520 0 -521 0 3 -117z"/>
<path d="M692 4408 c-140 -373 -156 -560 -68 -838 l23 -75 -5 120 c-8 203 26
530 83 804 14 63 23 116 21 118 -2 2 -26 -56 -54 -129z"/>
<path d="M8235 4510 c3 -19 16 -93 30 -165 50 -269 59 -369 60 -622 0 -133 1
-240 2 -239 9 9 65 236 74 301 14 111 -2 271 -41 401 -37 124 -133 371 -125
324z"/>
<path d="M395 4372 c9 -19 14 -40 11 -48 -4 -10 -2 -13 7 -8 8 5 7 2 -2 -9
-11 -14 -11 -17 0 -17 11 0 11 -2 -1 -10 -13 -9 -13 -10 0 -10 13 0 13 -1 0
-10 -13 -9 -13 -10 0 -10 13 0 13 -1 0 -10 -13 -9 -13 -10 0 -10 13 0 13 -1 0
-10 -13 -9 -13 -10 0 -10 13 0 13 -1 0 -10 -13 -9 -13 -10 0 -10 13 0 13 -1 0
-10 -13 -9 -13 -10 0 -10 13 0 13 -1 0 -10 -13 -9 -13 -10 0 -10 13 0 13 -1 0
-10 -13 -9 -13 -10 0 -10 13 0 13 -1 0 -10 -13 -9 -13 -10 0 -10 9 0 11 -3 5
-8 -13 -9 -20 -46 -7 -38 5 3 9 -1 9 -9 0 -8 -4 -12 -9 -9 -10 6 -10 6 1 -33
7 -22 6 -33 -2 -37 -9 -3 -8 -5 1 -5 6 -1 12 -8 12 -16 0 -8 -6 -15 -12 -15
-10 0 -10 -2 0 -9 15 -9 15 -20 1 -38 -7 -7 -6 -14 1 -18 6 -3 8 -11 5 -16 -4
-5 0 -9 7 -9 9 0 9 -3 -2 -10 -8 -5 -10 -10 -3 -10 6 0 10 -8 8 -17 -1 -10 3
-24 9 -32 9 -12 8 -13 -2 -7 -11 7 -12 4 -4 -10 5 -11 8 -27 7 -36 -2 -10 2
-18 8 -18 8 0 8 -3 0 -11 -8 -8 -7 -19 4 -39 7 -16 16 -50 19 -76 2 -25 7 -51
11 -57 4 -6 7 -23 8 -37 1 -14 4 -30 7 -35 3 -6 9 -25 13 -44 4 -21 28 -57 58
-90 51 -55 51 -55 7 -15 -25 22 -86 75 -137 118 -50 42 -102 89 -114 104 l-22
27 7 -29 c17 -69 157 -287 273 -424 69 -81 438 -463 432 -447 -5 11 -54 101
-145 263 -35 62 -64 116 -64 121 0 4 -15 41 -34 82 -127 276 -228 642 -271
984 -15 116 -21 138 -56 205 -40 75 -77 125 -44 62z"/>
<path d="M2394 4181 c3 -74 7 -247 8 -385 1 -138 3 -232 5 -208 l4 42 495 0
494 0 0 335 c0 184 0 337 0 340 0 3 -228 6 -506 8 l-507 2 7 -134z"/>
<path d="M3439 4086 c-2 -2 -3 -56 -1 -120 l3 -116 510 0 509 0 0 120 0 120
-508 0 c-280 0 -511 -2 -513 -4z m751 -33 c0 -8 -57 -10 -65 -2 -2 3 11 6 30
7 19 2 35 -1 35 -5z m82 0 c-6 -3 -9 -10 -6 -16 5 -8 2 -8 -7 1 -21 20 -34 14
-14 -8 10 -11 23 -17 29 -13 6 4 4 -1 -4 -11 -13 -17 -20 -35 -22 -63 -1 -7
-5 -10 -10 -7 -4 3 -3 14 2 25 10 17 6 23 -12 20 -4 0 -4 7 -1 16 4 10 2 14
-4 10 -5 -3 -10 1 -10 10 0 13 4 12 17 -5 10 -12 20 -18 24 -15 9 9 -35 54
-45 47 -5 -3 -9 -1 -9 4 0 5 19 9 43 9 23 0 36 -2 29 -4z m19 -16 c-10 -9 -11
-8 -5 6 3 10 9 15 12 12 3 -3 0 -11 -7 -18z m-94 -22 c-4 -8 -2 -17 4 -21 5
-3 7 -15 3 -27 -6 -20 -5 -21 12 -7 17 13 18 13 7 -1 -10 -12 -10 -18 0 -29 6
-8 2 -6 -11 4 -15 13 -20 26 -16 39 4 12 2 17 -4 13 -6 -3 -9 1 -7 11 2 10 4
21 4 26 1 4 4 7 7 7 3 0 4 -7 1 -15z m-25 -52 c-1 -4 6 -15 14 -25 12 -13 13
-17 2 -24 -7 -4 -10 -4 -6 1 4 4 2 15 -4 23 -12 13 -22 49 -11 39 2 -3 5 -9 5
-14z m104 -8 c-1 -8 -5 -17 -8 -21 -5 -4 -4 16 1 34 3 9 9 -1 7 -13z"/>
<path d="M8101 3894 c0 -11 3 -14 6 -6 3 7 2 16 -1 19 -3 4 -6 -2 -5 -13z"/>
<path d="M3440 3234 c0 -343 -1 -365 -17 -360 -10 3 -56 15 -103 26 -145 36
-359 99 -515 152 -193 65 -184 63 -165 49 26 -19 398 -138 595 -190 105 -28
395 -94 645 -146 250 -52 483 -102 518 -109 l62 -14 0 479 0 479 -510 0 -510
0 0 -366z m805 -532 c-3 -3 -11 0 -18 7 -9 10 -8 11 6 5 10 -3 15 -9 12 -12z"/>
<path d="M2412 3505 c-4 -102 52 -245 127 -327 l48 -53 407 3 406 2 0 123 0
122 -479 -3 -480 -2 -10 52 c-6 29 -12 69 -14 88 -4 35 -4 35 -5 -5z"/>
<path d="M7848 3133 c-91 -186 -98 -204 -104 -263 -3 -25 -9 -58 -14 -75 -5
-16 -12 -50 -16 -75 -4 -25 -9 -48 -10 -52 -1 -5 -2 -18 -3 -30 -1 -19 -3 -20
-11 -8 -6 9 -10 10 -10 3 0 -6 3 -14 8 -17 13 -8 3 -99 -13 -113 -4 -4 -5 -2
0 6 5 9 4 12 -3 7 -7 -4 -12 -26 -13 -49 0 -23 -6 -84 -13 -134 -6 -51 -10
-93 -8 -93 9 0 125 258 156 347 19 57 51 185 70 285 42 219 47 242 38 163 -3
-33 -6 -100 -5 -148 2 -48 -1 -86 -5 -83 -7 4 -8 -44 -2 -99 3 -36 19 33 35
153 15 115 18 271 6 375 l-6 58 -77 -158z m69 -20 c-3 -10 -5 -4 -5 12 0 17 2
24 5 18 2 -7 2 -21 0 -30z"/>
<path d="M1041 3080 c-1 -231 10 -326 57 -465 37 -112 105 -228 187 -320 l36
-40 -27 54 c-49 102 -115 284 -149 415 -36 135 -84 399 -86 464 0 20 -4 46 -9
57 -5 12 -9 -52 -9 -165z"/>
<path d="M8559 3152 c-45 -80 -146 -208 -216 -272 -77 -71 -160 -127 -295
-199 l-98 -53 -76 -111 c-192 -281 -453 -572 -679 -760 -80 -67 -180 -157
-173 -157 3 0 45 19 94 41 49 23 130 57 179 76 138 52 454 223 654 354 82 53
86 58 186 209 56 85 123 191 147 235 74 131 193 382 242 510 26 66 51 131 57
144 17 41 5 31 -22 -17z"/>
<path d="M1217 3024 c-6 -7 19 -64 29 -64 2 0 -2 13 -10 29 -9 16 -12 31 -9
35 4 3 4 6 1 6 -2 0 -7 -3 -11 -6z"/>
<path d="M670 2829 c28 -28 73 -127 63 -142 -3 -6 -1 -7 5 -3 11 6 16 -6 13
-26 0 -5 4 -8 11 -8 6 0 9 -3 5 -6 -3 -3 5 -24 19 -46 14 -22 20 -37 12 -32
-7 4 -3 -4 10 -18 12 -13 19 -28 15 -31 -3 -4 -1 -7 6 -7 7 0 9 -4 6 -10 -3
-5 -1 -10 5 -10 6 0 8 -4 5 -10 -3 -5 -1 -10 6 -10 7 0 9 -3 6 -7 -4 -3 1 -12
11 -20 9 -8 11 -12 4 -8 -7 3 -1 -10 13 -30 13 -21 22 -42 18 -48 -3 -5 -1 -7
4 -4 6 4 14 -4 17 -18 4 -14 11 -25 17 -25 6 0 7 -4 4 -10 -3 -5 -1 -10 6 -10
7 0 9 -3 6 -7 -4 -3 1 -12 11 -20 9 -8 11 -11 3 -7 -9 5 -8 -2 5 -19 10 -15
24 -27 29 -27 6 0 3 -5 -5 -10 -13 -8 -12 -10 4 -10 11 0 16 -3 13 -7 -4 -3 2
-12 13 -20 11 -8 20 -23 20 -34 0 -11 7 -22 15 -25 8 -4 12 -10 9 -15 -3 -5
10 -16 28 -24 57 -25 6 -16 -56 10 -33 13 -62 23 -64 21 -12 -13 259 -195 378
-254 98 -48 621 -264 627 -258 2 2 -7 10 -19 18 -13 9 -57 43 -98 77 -41 34
-95 79 -120 99 -25 20 -49 36 -55 34 -5 -2 -7 0 -3 4 5 4 -58 75 -140 158
-204 209 -393 441 -499 616 -16 26 -46 48 -105 80 -70 37 -159 90 -278 166
l-25 16 25 -23z m1010 -1005 c0 -2 -9 0 -20 6 -11 6 -20 13 -20 16 0 2 9 0 20
-6 11 -6 20 -13 20 -16z"/>
<path d="M4786 2681 c-4 -5 3 -7 14 -4 23 6 26 13 6 13 -8 0 -17 -4 -20 -9z"/>
<path d="M4638 2657 c-54 -12 -98 -24 -98 -28 0 -8 44 -5 51 4 3 4 26 8 51 10
26 1 44 4 41 7 -2 3 17 10 44 16 84 20 12 13 -89 -9z"/>
<path d="M4498 2623 c6 -2 18 -2 25 0 6 3 1 5 -13 5 -14 0 -19 -2 -12 -5z"/>
<path d="M4640 2595 c5 -7 6 -16 2 -21 -4 -5 -3 -5 2 -1 15 12 15 34 0 34 -9
0 -11 -4 -4 -12z"/>
<path d="M4563 2586 c1 -6 -4 -10 -10 -8 -7 1 -12 -2 -10 -7 1 -5 -2 -8 -8 -7
-5 0 -9 5 -7 9 1 5 -2 6 -8 2 -8 -5 -7 -11 1 -21 6 -8 9 -23 6 -34 -3 -11 -1
-18 4 -14 5 3 9 14 9 25 0 11 4 18 10 14 5 -3 7 -13 4 -23 -5 -14 -4 -15 5 -2
9 13 11 13 11 0 0 -12 2 -13 9 -1 7 11 9 11 14 0 4 -11 6 -11 6 1 1 13 2 13
11 0 7 -12 9 -10 7 7 -1 17 -4 20 -15 11 -10 -9 -12 -6 -8 17 3 15 2 24 -2 20
-7 -6 -8 -10 -11 -36 0 -5 -5 -8 -10 -5 -12 8 -9 30 7 48 9 12 9 15 -3 15 -7
0 -13 -5 -12 -11z"/>
<path d="M4672 2577 c-17 -18 -19 -26 -10 -35 7 -7 8 -12 3 -12 -5 0 -20 12
-33 28 -19 22 -20 22 -8 3 11 -17 12 -29 5 -43 -6 -12 -6 -25 1 -40 10 -21 10
-21 -3 -6 -8 10 -17 15 -21 11 -4 -4 -4 0 -1 8 5 12 -2 15 -29 14 -41 -1 -53
-10 -38 -28 9 -10 8 -14 -3 -14 -7 0 -14 3 -13 6 0 3 0 13 -1 21 -1 13 -2 13
-11 0 -5 -8 -10 -12 -10 -7 0 4 6 16 12 27 10 16 10 23 -3 35 -18 18 -16 25
-25 -99 -6 -83 -6 -88 12 -83 11 3 89 24 174 46 85 22 173 46 194 54 35 12 37
14 18 19 -14 4 -20 2 -16 -4 4 -6 1 -8 -7 -6 -8 3 -13 11 -11 17 1 6 -1 10 -5
10 -5 -1 -11 0 -15 1 -5 1 -14 3 -20 4 -7 1 -12 8 -10 16 3 11 0 11 -14 -1
-15 -13 -16 -12 -10 11 5 18 4 21 -3 10 -5 -8 -7 -28 -3 -45 6 -30 6 -30 12
-5 3 15 9 20 13 13 4 -6 -1 -21 -11 -33 l-18 -22 -2 28 c-3 34 -29 77 -42 69
-9 -6 -14 7 -11 30 1 6 -7 0 -18 -12 -10 -12 -21 -19 -25 -16 -3 4 4 17 16 30
12 13 19 23 16 23 -2 0 -14 -10 -26 -23z m31 -90 c-9 -9 -19 -15 -22 -12 -3 4
1 10 8 14 17 11 3 18 -31 16 -19 -1 -25 2 -21 12 4 11 8 12 13 3 5 -8 13 -4
26 13 l19 26 12 -27 c9 -22 8 -30 -4 -45z m-196 31 c-3 -8 -6 -5 -6 6 -1 11 2
17 5 13 3 -3 4 -12 1 -19z m228 1 c-4 -5 -2 -9 2 -9 5 0 9 -11 9 -25 0 -16 -3
-22 -10 -15 -6 6 -15 5 -25 -3 -12 -9 -12 -7 1 9 11 13 15 28 11 43 -4 17 -3
22 6 17 6 -4 9 -12 6 -17z m-168 -36 c0 -9 -4 -10 -14 -2 -7 6 -13 12 -13 14
0 1 6 2 13 2 8 0 14 -6 14 -14z m262 -2 c9 -16 6 -20 -17 -24 -23 -4 -25 -4
-9 8 19 14 24 30 5 19 -7 -4 -8 -3 -4 4 10 16 14 15 25 -7z"/>
<path d="M4679 2523 c-7 -10 -9 -15 -5 -11 5 4 15 3 22 -3 9 -8 11 -5 7 10 -6
25 -7 25 -24 4z"/>
<path d="M7670 2563 c0 -24 3 -33 9 -25 7 12 4 62 -5 62 -2 0 -4 -17 -4 -37z"/>
<path d="M7043 2103 c-188 -186 -252 -280 -373 -552 -21 -47 -52 -117 -70
-156 l-31 -70 57 55 c163 159 331 399 474 680 50 99 89 180 87 180 -2 0 -66
-62 -144 -137z"/>
<path d="M1790 2203 c0 -23 99 -312 128 -373 38 -79 121 -200 196 -285 53 -61
154 -142 245 -200 l45 -28 -35 40 c-19 22 -63 73 -98 114 -157 180 -313 412
-418 619 -35 68 -63 119 -63 113z"/>
<path d="M7800 1855 c-35 -37 -171 -122 -265 -165 -144 -67 -239 -91 -445
-111 -63 -6 -124 -16 -135 -22 -12 -7 -67 -45 -123 -85 -242 -175 -630 -383
-897 -482 -155 -58 -190 -75 -135 -65 85 14 368 45 505 55 177 13 386 42 505
71 47 11 96 23 110 26 23 5 207 131 272 186 14 12 46 38 69 57 99 80 200 171
302 270 128 124 272 279 265 285 -2 3 -15 -6 -28 -20z"/>
<path d="M1364 1706 c33 -25 56 -46 52 -46 -4 0 -1 -7 8 -15 8 -8 20 -15 26
-15 6 0 8 -4 5 -10 -3 -5 1 -10 10 -10 9 0 14 -4 11 -9 -3 -5 3 -11 14 -14 11
-3 20 -12 20 -21 0 -9 5 -16 12 -16 6 0 26 -15 43 -32 33 -35 122 -112 156
-135 10 -8 16 -19 13 -25 -4 -7 -2 -8 4 -4 6 3 16 -3 22 -14 6 -11 16 -18 21
-14 6 3 24 -9 41 -27 16 -19 34 -33 39 -31 5 1 9 -6 9 -15 0 -15 2 -16 10 -3
8 13 10 12 10 -3 0 -10 5 -15 10 -12 5 3 10 -1 10 -10 0 -9 5 -13 10 -10 6 3
10 1 10 -5 0 -6 5 -8 10 -5 6 3 10 1 10 -6 0 -7 3 -10 6 -7 3 4 14 -2 25 -13
21 -21 25 -34 7 -23 -7 4 -8 3 -4 -4 4 -6 13 -9 20 -6 7 3 19 -2 26 -10 7 -9
16 -13 21 -10 5 3 9 0 9 -6 0 -6 4 -8 10 -5 5 3 7 0 4 -8 -6 -16 -2 -16 111
-18 l80 -1 -80 -9 c-44 -5 -90 -6 -102 -4 -13 3 -23 2 -23 -3 0 -27 276 -74
605 -102 132 -12 311 -29 398 -39 86 -9 157 -14 157 -9 0 4 -5 8 -11 8 -30 0
-304 111 -449 181 -246 121 -470 253 -674 401 -59 43 -78 51 -135 59 -328 42
-375 54 -539 132 -48 23 -91 43 -97 45 -5 3 17 -16 49 -42z"/>
<path d="M2875 1455 c242 -333 538 -573 814 -659 46 -15 85 -25 86 -24 2 2
-53 38 -121 81 -274 173 -556 389 -714 547 -52 52 -81 77 -65 55z"/>
<path d="M5930 1402 c-325 -162 -420 -236 -614 -477 -49 -60 -96 -118 -105
-129 -22 -25 150 61 253 128 109 71 169 120 397 327 107 97 210 190 229 207
19 17 31 31 25 31 -5 0 -89 -39 -185 -87z"/>
<path d="M1870 1206 c0 -2 8 -10 18 -17 15 -13 16 -12 3 4 -13 16 -21 21 -21
13z"/>
<path d="M1910 1176 c0 -2 8 -10 18 -17 15 -13 16 -12 3 4 -13 16 -21 21 -21
13z"/>
<path d="M1975 1125 c17 -13 34 -24 39 -25 6 0 -5 11 -24 25 -44 32 -54 32
-15 0z"/>
<path d="M6720 955 c-79 -34 -205 -62 -360 -79 -154 -18 -228 -20 -320 -6 -36
5 -118 16 -184 25 l-119 15 -123 -40 c-275 -90 -622 -164 -879 -190 -66 -7
-138 -15 -160 -19 -38 -7 -36 -8 35 -15 82 -9 368 -44 605 -75 83 -11 253 -27
378 -36 l229 -16 86 32 c136 50 350 143 495 215 139 70 377 202 377 210 0 2
-1 4 -2 3 -2 0 -28 -11 -58 -24z m-1453 -271 c-3 -3 -12 -4 -19 -1 -8 3 -5 6
6 6 11 1 17 -2 13 -5z"/>
<path d="M2260 945 c0 -7 93 -50 98 -46 2 1 10 -6 18 -16 11 -15 15 -15 23 -4
7 10 13 11 30 2 12 -7 26 -9 31 -6 5 3 11 1 15 -4 3 -5 14 -8 25 -6 12 2 18 0
15 -6 -4 -5 -11 -6 -17 -3 -6 4 -8 2 -4 -4 3 -6 16 -9 27 -7 16 3 18 1 10 -8
-7 -9 -5 -13 9 -13 10 0 16 5 12 11 -3 5 2 4 11 -4 9 -7 17 -10 17 -7 0 4 13
-1 29 -10 17 -10 28 -21 25 -25 -2 -5 5 -6 16 -4 11 2 20 0 20 -6 0 -5 8 -9
18 -9 14 0 15 -2 2 -10 -8 -5 -10 -10 -4 -10 5 0 15 5 21 11 8 8 13 8 17 0 4
-6 16 -11 26 -11 10 0 24 -8 29 -17 8 -13 10 -14 11 -4 0 11 4 10 16 -5 8 -10
13 -13 9 -6 -8 16 46 -7 58 -25 4 -7 15 -9 24 -6 12 5 14 3 8 -8 -7 -11 -5
-11 10 1 15 12 17 12 10 1 -6 -11 -4 -13 9 -8 10 4 15 3 11 -3 -6 -10 7 -14
34 -11 7 2 10 -2 7 -8 -4 -6 2 -8 13 -6 11 2 27 -5 37 -16 9 -10 22 -19 27
-19 6 0 2 7 -9 16 -18 14 -18 14 6 3 14 -7 26 -12 28 -11 14 10 22 -1 11 -15
-7 -10 -9 -15 -5 -11 5 4 15 3 23 -4 10 -8 12 -8 8 4 -4 9 0 15 8 15 8 0 14
-7 13 -16 0 -9 4 -15 11 -14 6 1 17 -4 23 -12 7 -8 17 -15 23 -15 6 0 2 7 -9
15 -18 14 -17 14 11 4 17 -6 31 -10 33 -10 1 1 5 1 10 0 4 0 -15 -7 -42 -14
-26 -7 -56 -11 -65 -8 -11 3 -10 1 3 -8 22 -13 175 -8 412 16 161 16 877 105
882 109 4 4 -157 24 -283 36 -183 16 -498 86 -770 172 -148 46 -166 47 -372
18 -76 -11 -169 -20 -208 -20 -148 0 -466 48 -526 80 -10 6 -19 8 -19 5z m140
-49 c0 -3 -4 -8 -10 -11 -5 -3 -10 -1 -10 4 0 6 5 11 10 11 6 0 10 -2 10 -4z
m1467 -202 c-3 -3 -12 -4 -19 -1 -8 3 -5 6 6 6 11 1 17 -2 13 -5z"/>
<path d="M2466 855 c7 -18 6 -18 -9 -6 -9 7 -17 9 -17 3 0 -14 28 -23 36 -11
3 6 1 16 -5 22 -9 9 -10 7 -5 -8z"/>
<path d="M2787 669 c7 -7 15 -10 18 -7 3 3 -2 9 -12 12 -14 6 -15 5 -6 -5z"/>
<path d="M4332 595 c-166 -74 -277 -110 -402 -130 -124 -20 -400 -28 -484 -14
-188 32 54 -39 309 -90 274 -55 564 -91 740 -91 257 0 637 58 1012 156 153 40
272 76 193 59 -262 -56 -574 -50 -809 16 -42 12 -143 50 -224 85 -84 36 -163
64 -180 63 -18 0 -87 -24 -155 -54z m-752 -177 c0 -11 -12 -10 -30 2 -12 7
-10 9 8 7 12 0 22 -5 22 -9z m24 -4 c3 -8 2 -12 -4 -9 -6 3 -10 10 -10 16 0
14 7 11 14 -7z m30 1 c3 -8 1 -15 -3 -15 -5 0 -11 7 -15 15 -3 8 -1 15 3 15 5
0 11 -7 15 -15z m24 3 c-2 -7 6 -12 17 -12 11 0 19 6 17 13 -1 7 2 10 8 6 5
-3 10 -14 10 -23 0 -13 2 -13 15 4 15 19 15 19 8 -1 -6 -17 -4 -18 8 -8 12 10
15 8 16 -10 1 -12 -1 -17 -5 -11 -4 6 -15 10 -24 8 -10 -1 -20 2 -23 6 -3 5
-15 7 -27 5 -12 -3 -26 1 -30 8 -11 17 -10 27 2 27 6 0 9 -5 8 -12z m166 -30
c-8 -13 10 -10 25 5 11 10 12 9 6 -2 -6 -11 -4 -13 8 -8 9 3 21 -1 28 -11 11
-14 11 -15 0 -5 -16 14 -44 6 -34 -11 4 -6 -1 -5 -10 2 -9 8 -22 10 -29 6 -7
-4 -10 -4 -6 1 4 4 3 13 -2 20 -7 8 -5 12 5 12 8 0 12 -4 9 -9z m-27 -14 c-3
-3 -12 -4 -19 -1 -8 3 -5 6 6 6 11 1 17 -2 13 -5z m160 -17 c0 -8 -6 -14 -14
-14 -9 0 -10 4 -2 14 6 7 12 13 14 13 1 0 2 -6 2 -13z"/>
<path d="M2900 620 c8 -5 20 -10 25 -10 6 0 3 5 -5 10 -8 5 -19 10 -25 10 -5
0 -3 -5 5 -10z"/>
<path d="M2979 589 c24 -11 46 -18 48 -15 4 4 -73 36 -85 35 -4 0 13 -9 37
-20z"/>
<path d="M7173 581 c-128 -59 -111 -244 26 -281 143 -38 247 134 149 246 -27
30 -79 54 -118 54 -8 0 -34 -9 -57 -19z m125 -11 c33 -15 47 -29 62 -62 24
-54 24 -72 0 -126 -15 -34 -29 -47 -65 -63 -143 -63 -269 117 -157 225 50 47
97 55 160 26z"/>
<path d="M7180 445 c0 -50 4 -85 10 -85 6 0 10 18 10 40 0 35 3 40 23 40 17 0
30 -11 46 -40 12 -22 27 -40 33 -40 6 0 -2 16 -17 36 -15 19 -25 37 -24 38 2
2 14 9 27 15 28 15 30 56 3 71 -11 5 -40 10 -65 10 l-46 0 0 -85z m104 69 c19
-7 21 -35 4 -52 -7 -7 -29 -12 -49 -12 -33 0 -37 3 -41 30 -3 17 -2 32 0 35 7
7 67 6 86 -1z"/>
<path d="M3055 560 c27 -12 43 -12 25 0 -8 5 -22 9 -30 9 -10 0 -8 -3 5 -9z"/>
</g>
</svg>
